<?xml version="1.0" standalone="no"?>
<!DOCTYPE svg PUBLIC "-//W3C//DTD SVG 20010904//EN"
 "http://www.w3.org/TR/2001/REC-SVG-20010904/DTD/svg10.dtd">
<svg version="1.0" xmlns="http://www.w3.org/2000/svg"
 width="2560.000000pt" height="1440.000000pt" viewBox="0 0 2560.000000 1440.000000"
 preserveAspectRatio="xMidYMid meet">

<g transform="translate(0.000000,1440.000000) scale(0.100000,-0.100000)"
fill="#000000" stroke="none">
<path d="M12650 9590 c-8 -6 -40 -21 -70 -34 -30 -14 -91 -45 -135 -70 -44
-25 -116 -64 -160 -87 -44 -23 -105 -60 -135 -83 -74 -56 -248 -148 -340 -179
-75 -26 -165 -61 -230 -90 -19 -9 -57 -32 -84 -51 -30 -22 -61 -36 -79 -36
-36 0 -174 -64 -247 -114 -44 -30 -61 -36 -106 -36 -38 0 -69 -7 -104 -25 -27
-14 -55 -25 -61 -25 -14 0 -186 -97 -214 -121 -11 -9 -54 -33 -96 -54 -89 -43
-84 -43 -251 29 l-107 46 -37 -17 c-21 -10 -48 -27 -61 -39 -28 -26 -129 -39
-170 -23 -16 7 -37 15 -48 19 -32 12 -114 30 -135 30 -11 0 -80 29 -154 64
-73 36 -144 68 -158 71 -13 3 -38 19 -55 36 -18 16 -34 29 -38 29 -3 0 -28 16
-56 35 l-50 36 -26 -21 c-14 -11 -29 -20 -33 -20 -12 0 -111 -62 -175 -110
-33 -25 -107 -68 -164 -97 -83 -42 -108 -50 -123 -42 -13 7 -23 7 -32 0 -7 -6
-61 -36 -121 -66 -59 -30 -116 -62 -125 -70 -9 -8 -19 -15 -22 -15 -3 0 -37
-18 -74 -40 -80 -47 -134 -53 -157 -19 -14 19 -17 20 -39 6 -12 -9 -45 -21
-73 -28 -27 -6 -84 -30 -125 -53 -93 -52 -144 -76 -163 -76 -8 0 -28 -13 -44
-29 -17 -16 -46 -36 -64 -44 -19 -8 -55 -24 -81 -36 -26 -11 -50 -21 -52 -21
-11 0 -183 -84 -196 -95 -26 -23 -65 -28 -79 -11 -8 9 -29 16 -48 16 -26 0
-36 5 -40 20 -3 11 -9 20 -14 20 -5 0 -27 19 -49 41 -31 33 -38 45 -29 55 19
23 3 44 -34 44 -42 0 -66 23 -47 45 8 10 21 13 39 9 l26 -6 -24 17 c-13 10
-50 31 -81 46 -57 28 -58 28 -111 12 -124 -36 -172 -63 -114 -63 39 0 34 -36
-6 -44 -19 -4 -56 -30 -98 -70 -72 -70 -107 -89 -161 -87 -47 1 -85 -16 -105
-46 -13 -19 -22 -23 -38 -19 -12 4 -37 9 -56 12 -19 2 -40 9 -45 13 -6 5 -33
14 -61 20 -119 24 -176 39 -188 50 -8 6 -49 22 -93 36 -43 14 -88 29 -99 34
-11 5 -38 13 -60 19 -58 15 -164 45 -290 82 -60 18 -139 40 -175 49 -59 16
-85 25 -145 50 -83 34 -124 33 -154 -5 -10 -13 -24 -24 -31 -24 -7 0 -26 -6
-43 -14 -51 -23 -178 -67 -232 -81 -27 -7 -77 -22 -110 -34 -33 -11 -63 -21
-67 -21 -12 0 -10 68 2 75 12 8 13 25 1 25 -5 0 -12 -10 -16 -22 -9 -28 -8
-24 -25 -71 -12 -31 -21 -39 -55 -47 -22 -6 -48 -15 -57 -20 -10 -6 -22 -10
-27 -10 -5 0 -22 -5 -38 -11 -15 -7 -37 -13 -47 -14 -11 -1 -26 -12 -34 -23
-19 -29 -46 -30 -37 -1 7 20 5 20 -31 -5 -53 -36 -74 -34 -74 4 0 18 6 33 15
36 8 4 15 12 15 20 0 10 13 14 41 14 32 0 40 3 36 15 -4 8 -2 17 4 20 23 15
-5 24 -31 10 -53 -27 -65 -16 -19 17 48 34 60 48 53 60 -8 12 -52 10 -74 -4
-17 -11 -22 -10 -30 2 -6 10 -5 17 5 23 8 4 12 14 9 22 -4 10 0 15 11 15 9 0
13 -5 9 -11 -4 -7 -1 -10 7 -7 8 3 19 14 25 26 6 12 19 32 30 43 14 16 16 23
6 26 -6 3 -10 9 -6 14 3 5 0 9 -6 9 -6 0 -13 -7 -16 -14 -7 -19 -73 -70 -81
-63 -12 12 10 47 43 67 18 12 34 25 34 30 0 17 -39 17 -55 0 -16 -17 -66 -22
-81 -7 -14 14 -34 7 -34 -11 0 -21 29 -52 48 -52 7 0 12 -4 12 -10 0 -5 -4
-10 -9 -10 -6 0 -13 5 -16 10 -10 16 -38 12 -31 -5 3 -9 0 -15 -9 -15 -28 0
-16 -39 18 -56 30 -16 47 -31 47 -45 0 -4 -18 -3 -41 2 -48 11 -57 7 -55 -23
1 -18 12 -27 51 -41 l50 -17 -55 6 -55 5 40 -35 c22 -19 48 -35 58 -36 13 0
17 -8 17 -35 0 -19 -3 -35 -6 -35 -12 0 -50 24 -67 41 -21 22 -41 25 -34 5 3
-8 -1 -17 -9 -20 -19 -7 -10 -22 30 -48 l31 -19 -33 6 c-35 7 -44 -7 -14 -24
14 -9 13 -10 -10 -11 -31 0 -108 28 -108 40 0 8 -57 24 -76 21 -6 -1 -19 8
-29 19 -18 20 -8 29 11 10 8 -8 19 -7 37 1 29 13 27 29 -4 29 -12 0 -19 7 -19
18 0 10 -11 29 -25 42 -30 28 -32 44 -5 37 28 -7 35 10 10 23 -12 6 -26 23
-32 38 l-10 27 -15 -31 c-8 -17 -29 -39 -45 -49 -21 -12 -26 -20 -18 -25 7 -4
9 -13 6 -19 -11 -17 10 -13 24 4 7 8 18 15 24 15 6 -1 -7 -18 -30 -38 -50 -45
-61 -70 -37 -87 31 -23 8 -27 -55 -11 -33 9 -65 16 -71 16 -12 0 -51 -71 -51
-94 0 -8 -20 -36 -43 -62 l-44 -48 -31 24 c-17 14 -31 34 -31 46 -1 33 -12 35
-44 8 -34 -28 -49 -24 -22 6 18 19 17 20 -1 20 -16 0 -14 4 11 26 30 26 29 26
-25 13 -12 -3 -14 5 -12 39 2 25 -1 42 -7 42 -6 0 -11 -16 -11 -36 0 -27 -5
-37 -20 -41 -11 -3 -20 -10 -20 -15 0 -6 -8 -4 -17 3 -15 12 -16 12 -9 -6 20
-49 20 -58 0 -48 -10 5 -46 15 -79 22 -33 7 -67 16 -75 20 -17 9 -130 45 -145
46 -5 1 -26 7 -46 13 -35 12 -128 31 -179 37 -14 1 -27 3 -30 4 -9 2 -143 91
-160 105 -8 8 -35 17 -60 20 -39 6 -115 32 -160 56 -248 130 -272 137 -364
100 -37 -15 -72 -32 -79 -39 -6 -6 -17 -11 -24 -11 -7 0 -13 -5 -13 -11 0 -21
-71 -1 -132 36 -37 24 -65 34 -77 30 -11 -3 -22 -1 -26 5 -14 23 -54 29 -119
18 -49 -8 -76 -8 -105 1 -31 9 -52 8 -107 -5 -39 -9 -85 -13 -107 -10 -40 7
-65 -3 -134 -50 -37 -25 -68 -28 -115 -9 -23 9 -23 -12 -1 -38 17 -19 17 -20
1 -14 -12 4 -18 1 -18 -8 0 -15 -37 -45 -56 -45 -13 0 -25 48 -14 55 5 3 10 0
12 -6 2 -7 10 -10 18 -7 9 3 4 14 -19 37 -32 32 -36 56 -6 31 9 -7 18 -10 22
-6 13 13 -14 25 -79 36 -77 12 -116 25 -139 46 -9 8 -40 19 -70 23 -30 5 -66
12 -81 16 -24 6 -28 4 -28 -14 0 -12 -6 -21 -16 -21 -10 0 -14 7 -12 22 2 16
-5 24 -31 33 -18 6 -43 23 -55 37 -27 32 -60 50 -81 42 -9 -4 -15 -3 -13 2 2
5 -20 32 -49 59 l-51 50 0 -262 c0 -239 1 -261 16 -256 15 6 15 4 0 -14 -17
-19 -18 -226 -18 -4056 l0 -4037 12800 0 12800 0 0 4198 0 4199 -58 -20 c-97
-33 -171 -47 -213 -41 -22 4 -42 11 -45 15 -9 15 -35 10 -108 -22 -39 -18 -87
-39 -106 -47 -28 -12 -71 -15 -208 -13 -96 1 -185 7 -200 12 -34 13 -58 6
-169 -47 -51 -24 -95 -44 -98 -44 -3 0 -33 -13 -68 -29 -65 -30 -183 -50 -307
-52 -73 -2 -112 -13 -108 -31 3 -18 -12 -58 -21 -58 -18 0 -20 15 -4 32 11 13
12 18 3 18 -7 0 -19 -8 -26 -17 -10 -13 -16 -15 -22 -6 -5 8 -13 9 -22 3 -8
-6 -29 -10 -45 -10 -19 0 -35 -7 -43 -20 -7 -11 -18 -20 -25 -20 -7 0 -18 -9
-24 -19 -11 -17 -9 -21 7 -26 20 -6 26 -20 12 -29 -10 -6 -34 14 -49 42 -17
29 -16 32 5 32 10 0 25 8 34 19 15 18 14 18 -15 17 -19 -1 -34 -9 -41 -21 -6
-11 -15 -23 -20 -27 -6 -4 -4 -13 3 -22 11 -14 11 -16 -4 -16 -9 0 -15 -6 -12
-12 2 -7 16 -12 31 -10 14 1 26 -2 26 -8 0 -10 -62 -6 -80 5 -15 9 -12 25 5
25 8 0 15 4 15 9 0 5 -7 11 -15 15 -9 3 -15 0 -15 -8 0 -35 -87 -71 -97 -39
-3 8 6 11 24 10 24 -2 28 2 31 27 3 20 0 27 -10 24 -7 -3 -11 -13 -10 -23 3
-16 1 -17 -12 -6 -13 11 -20 8 -43 -13 -31 -29 -45 -33 -37 -12 9 22 -26 27
-58 9 -23 -14 -32 -15 -35 -5 -5 14 -33 16 -33 2 0 -5 5 -10 10 -10 6 0 10 -7
10 -15 0 -13 -7 -15 -37 -9 -42 7 -68 24 -39 24 15 0 16 3 6 15 -7 8 -17 12
-23 8 -5 -3 -15 1 -22 10 -11 15 -17 15 -75 -8 -34 -13 -78 -34 -97 -45 -19
-11 -43 -20 -54 -20 -11 0 -34 -7 -51 -16 -23 -12 -36 -14 -48 -6 -10 6 -39
13 -66 17 -27 4 -58 12 -69 19 -11 6 -47 22 -80 35 -33 12 -87 33 -120 47 -55
22 -69 23 -160 17 -155 -10 -188 -7 -242 25 -82 48 -90 48 -178 -6 -17 -11
-46 -22 -67 -26 -20 -3 -41 -13 -48 -20 -6 -8 -30 -17 -53 -21 -23 -4 -50 -9
-59 -11 -13 -4 -16 -1 -12 10 6 17 -33 37 -111 56 -55 14 -90 31 -148 72 -22
15 -56 30 -76 34 -20 4 -41 11 -47 16 -7 5 -26 10 -43 13 -17 2 -36 7 -43 11
-7 4 -25 7 -40 6 -27 -2 -32 7 -27 44 0 4 -4 10 -10 13 -6 4 -11 21 -13 38 -4
57 -28 76 -104 84 -38 5 -80 11 -94 14 -90 22 -163 12 -175 -25 -3 -10 -22
-29 -43 -43 -20 -14 -51 -39 -69 -56 -18 -17 -36 -31 -40 -31 -5 0 -28 -20
-51 -44 -49 -51 -89 -74 -146 -83 -23 -3 -43 -9 -46 -13 -3 -4 -30 -20 -60
-35 -30 -15 -69 -41 -85 -59 -27 -28 -40 -34 -94 -39 -35 -4 -68 -4 -74 0 -7
4 -37 6 -68 5 -34 -1 -81 6 -118 18 -69 22 -103 28 -179 34 -38 4 -63 12 -90
33 -39 31 -182 103 -203 103 -7 0 -20 7 -29 15 -9 8 -78 46 -154 85 -144 73
-195 85 -261 60 -36 -14 -47 -8 -178 100 -27 22 -52 40 -58 40 -5 0 -25 18
-45 40 -26 29 -40 37 -49 30 -13 -11 -25 -3 -25 17 0 7 7 13 15 13 8 0 15 4
15 10 0 13 -87 2 -122 -16 -15 -8 -28 -12 -28 -8 0 4 -6 2 -12 -4 -23 -19
-172 -64 -228 -69 -54 -5 -57 -4 -82 29 -14 18 -48 57 -76 85 -27 28 -55 67
-62 87 -14 44 -31 54 -104 62 -49 6 -56 9 -56 29 0 38 -29 54 -90 51 -31 -2
-70 4 -92 12 -36 14 -41 14 -76 -5 -20 -11 -62 -26 -92 -33 -30 -7 -63 -16
-72 -21 -10 -5 -23 -9 -30 -9 -15 0 -164 -74 -186 -92 -16 -14 -47 -33 -77
-47 -34 -16 -105 -82 -99 -92 3 -5 0 -9 -5 -9 -6 0 -11 9 -11 20 0 23 -17 26
-46 6 -22 -16 -47 -7 -42 13 8 35 -121 10 -163 -31 -20 -19 -236 -148 -249
-148 -6 0 -23 -8 -38 -19 -43 -29 -91 -57 -177 -102 -44 -23 -84 -48 -89 -56
-11 -21 -166 -8 -216 17 -19 10 -51 21 -70 25 -19 4 -54 13 -77 21 -23 7 -79
16 -125 20 -46 3 -108 12 -139 20 -31 8 -73 14 -92 14 -19 0 -51 7 -70 15 -20
8 -49 15 -65 15 -15 0 -46 9 -67 20 -35 18 -83 33 -177 54 -39 9 -36 35 13 90
30 34 39 50 31 58 -8 8 -24 -2 -57 -38 l-46 -49 -29 35 c-42 49 -83 90 -92 90
-17 0 -6 -21 32 -65 41 -48 54 -90 24 -78 -9 3 -20 0 -26 -8 -8 -11 -9 -10 -4
4 4 13 -2 20 -20 27 -32 13 -37 12 -29 0 3 -5 3 -10 -2 -10 -13 0 -35 17 -33
25 0 5 -22 15 -50 22 -28 7 -108 41 -177 75 -89 44 -138 63 -165 63 -21 0 -38
4 -38 10 0 6 -15 17 -32 24 -111 45 -166 64 -190 64 -15 0 -25 3 -23 7 2 4
-12 12 -33 18 -20 6 -84 42 -142 80 -93 60 -110 68 -144 64 -27 -3 -53 3 -89
21 -29 13 -70 32 -92 41 -66 29 -81 37 -108 62 -14 13 -29 24 -32 24 -4 0 -38
20 -76 45 -38 25 -73 45 -78 45 -5 0 -33 16 -62 37 -29 20 -65 37 -80 37 -14
1 -25 6 -23 11 4 10 -88 66 -236 143 -47 24 -96 53 -110 63 -36 28 -147 100
-202 132 -27 15 -48 32 -48 37 0 12 -10 12 -30 0z m338 -238 c2 -7 -3 -12 -12
-12 -9 0 -16 7 -16 16 0 17 22 14 28 -4z m62 -42 c0 -5 -4 -10 -10 -10 -5 0
-10 5 -10 10 0 6 5 10 10 10 6 0 10 -4 10 -10z m65 -30 c9 -15 -16 -43 -27
-32 -10 10 0 42 12 42 5 0 12 -5 15 -10z m73 -39 c3 -8 -1 -12 -9 -9 -7 2 -15
10 -17 17 -3 8 1 12 9 9 7 -2 15 -10 17 -17z m53 -24 c-1 -12 -15 -9 -19 4 -3
6 1 10 8 8 6 -3 11 -8 11 -12z m-57 -6 c3 -5 -4 -11 -16 -14 -25 -7 -33 -3
-23 12 8 13 32 14 39 2z m-1204 -301 c0 -5 -4 -10 -10 -10 -5 0 -10 5 -10 10
0 6 5 10 10 10 6 0 10 -4 10 -10z m2200 -210 c0 -5 -4 -10 -10 -10 -5 0 -10 5
-10 10 0 6 5 10 10 10 6 0 10 -4 10 -10z m90 -64 c0 -3 -4 -8 -10 -11 -5 -3
-10 -1 -10 4 0 6 5 11 10 11 6 0 10 -2 10 -4z m-54 -93 c-10 -10 -19 5 -10 18
6 11 8 11 12 0 2 -7 1 -15 -2 -18z m-14146 -23 c0 -5 -5 -10 -11 -10 -5 0 -7
5 -4 10 3 6 8 10 11 10 2 0 4 -4 4 -10z m14220 -22 c0 -6 -7 -5 -15 2 -8 7
-15 17 -15 22 0 6 7 5 15 -2 8 -7 15 -17 15 -22z m-14224 -25 c-7 -7 -26 7
-26 19 0 6 6 6 15 -2 9 -7 13 -15 11 -17z m14295 -3 c21 -1 49 -25 49 -44 0
-20 -16 -21 -23 -2 -3 8 -22 18 -42 22 -26 5 -35 11 -31 21 3 8 6 20 6 26 0 7
7 4 14 -5 7 -10 19 -18 27 -18z m-14321 -10 c0 -5 -2 -10 -4 -10 -3 0 -8 5
-11 10 -3 6 -1 10 4 10 6 0 11 -4 11 -10z m16830 -10 c0 -5 -5 -10 -11 -10 -5
0 -7 5 -4 10 3 6 8 10 11 10 2 0 4 -4 4 -10z m1755 0 c3 -5 -1 -10 -9 -10 -9
0 -16 5 -16 10 0 6 4 10 9 10 6 0 13 -4 16 -10z m-4161 -6 c17 -7 22 -34 6
-34 -5 0 -14 9 -20 20 -12 22 -10 23 14 14z m-14394 -19 c0 -8 -4 -15 -10 -15
-5 0 -10 7 -10 15 0 8 5 15 10 15 6 0 10 -7 10 -15z m-30 -25 c0 -5 -2 -10 -4
-10 -3 0 -8 5 -11 10 -3 6 -1 10 4 10 6 0 11 -4 11 -10z m14395 1 c3 -5 1 -12
-5 -16 -5 -3 -10 1 -10 9 0 18 6 21 15 7z m85 -1 c0 -5 -2 -10 -4 -10 -3 0 -8
5 -11 10 -3 6 -1 10 4 10 6 0 11 -4 11 -10z m564 -30 c9 0 16 -4 16 -9 0 -5
-15 -9 -33 -8 -30 1 -34 4 -34 30 l0 30 18 -21 c9 -12 24 -22 33 -22z m-14879
0 c-3 -5 -11 -10 -16 -10 -6 0 -7 5 -4 10 3 6 11 10 16 10 6 0 7 -4 4 -10z
m14939 -21 c-3 -5 -10 -7 -15 -3 -5 3 -7 10 -3 15 3 5 10 7 15 3 5 -3 7 -10 3
-15z m1886 11 c0 -5 -7 -10 -15 -10 -8 0 -15 5 -15 10 0 6 7 10 15 10 8 0 15
-4 15 -10z m-16963 -44 c-11 -27 -26 -18 -25 15 1 27 3 28 16 15 8 -8 12 -22
9 -30z m173 34 c0 -5 -5 -10 -11 -10 -5 0 -7 5 -4 10 3 6 8 10 11 10 2 0 4 -4
4 -10z m4800 0 c0 -5 -5 -10 -11 -10 -5 0 -7 5 -4 10 3 6 8 10 11 10 2 0 4 -4
4 -10z m9465 0 c3 -5 1 -10 -4 -10 -6 0 -11 5 -11 10 0 6 2 10 4 10 3 0 8 -4
11 -10z m6365 4 c0 -3 -7 -12 -15 -20 -12 -13 -15 -13 -15 -1 0 7 3 17 7 20 8
8 23 9 23 1z m-20662 -35 c1 -8 -6 -19 -17 -26 -18 -11 -19 -10 -17 15 5 35 4
34 19 30 6 -3 13 -11 15 -19z m15022 -4 c0 -8 -4 -15 -10 -15 -5 0 -10 7 -10
15 0 8 5 15 10 15 6 0 10 -7 10 -15z m1880 -12 c0 -20 -24 -11 -28 10 -2 12 1
15 12 11 9 -3 16 -13 16 -21z m-12120 3 c0 -3 -4 -8 -10 -11 -5 -3 -10 -1 -10
4 0 6 5 11 10 11 6 0 10 -2 10 -4z m320 -16 c0 -5 -7 -10 -15 -10 -8 0 -15 5
-15 10 0 6 7 10 15 10 8 0 15 -4 15 -10z m-5285 -10 c3 -5 1 -10 -4 -10 -6 0
-11 5 -11 10 0 6 2 10 4 10 3 0 8 -4 11 -10z m18565 -26 c0 -14 -21 -19 -33
-7 -9 9 13 34 24 27 5 -3 9 -12 9 -20z m-18280 6 c0 -5 -2 -10 -4 -10 -3 0 -8
5 -11 10 -3 6 -1 10 4 10 6 0 11 -4 11 -10z m300 6 c0 -3 -4 -8 -10 -11 -5 -3
-10 -1 -10 4 0 6 5 11 10 11 6 0 10 -2 10 -4z m30 0 c0 -3 -4 -8 -10 -11 -5
-3 -10 -1 -10 4 0 6 5 11 10 11 6 0 10 -2 10 -4z m1400 -6 c0 -5 -4 -10 -10
-10 -5 0 -10 5 -10 10 0 6 5 10 10 10 6 0 10 -4 10 -10z m4806 -27 c-10 -10
-19 5 -10 18 6 11 8 11 12 0 2 -7 1 -15 -2 -18z m72 9 c2 -7 -3 -12 -12 -12
-9 0 -16 7 -16 16 0 17 22 14 28 -4z m52 -3 c0 -5 -7 -9 -15 -9 -15 0 -20 12
-9 23 8 8 24 -1 24 -14z m45 1 c0 -7 -6 -15 -12 -17 -8 -3 -13 4 -13 17 0 13
5 20 13 18 6 -3 12 -11 12 -18z m10075 -1 c0 -5 -4 -9 -10 -9 -5 0 -10 7 -10
16 0 8 5 12 10 9 6 -3 10 -10 10 -16z m-11610 -3 c0 -11 -19 -15 -25 -6 -3 5
1 10 9 10 9 0 16 -2 16 -4z m15595 -6 c3 -5 1 -10 -4 -10 -6 0 -11 5 -11 10 0
6 2 10 4 10 3 0 8 -4 11 -10z m-20975 -10 c0 -5 -4 -10 -10 -10 -5 0 -10 5
-10 10 0 6 5 10 10 10 6 0 10 -4 10 -10z m90 1 c0 -18 -18 -21 -30 -6 -10 13
-9 15 9 15 11 0 21 -4 21 -9z m90 -27 c0 -8 -4 -12 -10 -9 -5 3 -10 10 -10 16
0 5 5 9 10 9 6 0 10 -7 10 -16z m-255 -14 c3 -5 1 -10 -4 -10 -6 0 -11 5 -11
10 0 6 2 10 4 10 3 0 8 -4 11 -10z m75 0 c0 -5 -5 -10 -11 -10 -5 0 -7 5 -4
10 3 6 8 10 11 10 2 0 4 -4 4 -10z m94 -62 c-7 -12 -34 -10 -34 2 0 6 -9 20
-20 32 -32 35 -11 40 25 6 18 -18 31 -36 29 -40z m6 62 c0 -5 -5 -10 -11 -10
-5 0 -7 5 -4 10 3 6 8 10 11 10 2 0 4 -4 4 -10z m110 0 c0 -5 -5 -10 -11 -10
-5 0 -7 5 -4 10 3 6 8 10 11 10 2 0 4 -4 4 -10z m4290 0 c0 -5 -5 -10 -11 -10
-5 0 -7 5 -4 10 3 6 8 10 11 10 2 0 4 -4 4 -10z m16115 0 c3 -5 1 -10 -4 -10
-6 0 -11 5 -11 10 0 6 2 10 4 10 3 0 8 -4 11 -10z m40 1 c3 -5 1 -12 -5 -16
-5 -3 -10 1 -10 9 0 18 6 21 15 7z m-20135 -9 c0 -13 -12 -22 -22 -16 -10 6
-1 24 13 24 5 0 9 -4 9 -8z m-35 -32 c3 -5 -1 -10 -10 -10 -9 0 -13 5 -10 10
3 6 8 10 10 10 2 0 7 -4 10 -10z m-515 -20 c0 -5 -4 -10 -10 -10 -5 0 -10 5
-10 10 0 6 5 10 10 10 6 0 10 -4 10 -10z m18080 -10 c0 -5 -8 -10 -17 -10 -15
0 -16 2 -3 10 19 12 20 12 20 0z m-17850 -10 c0 -5 -4 -10 -10 -10 -5 0 -10 5
-10 10 0 6 5 10 10 10 6 0 10 -4 10 -10z m-90 -10 c0 -5 -2 -10 -4 -10 -3 0
-8 5 -11 10 -3 6 -1 10 4 10 6 0 11 -4 11 -10z m-56 -42 c-3 -5 -14 -2 -25 8
-27 25 -23 37 6 18 14 -9 22 -20 19 -26z m3516 2 c0 -5 -9 -14 -20 -20 -19
-10 -20 -10 -8 9 13 22 28 28 28 11z m-3560 -10 c0 -5 -5 -10 -11 -10 -5 0 -7
5 -4 10 3 6 8 10 11 10 2 0 4 -4 4 -10z m21010 0 c0 -5 -5 -10 -11 -10 -5 0
-7 5 -4 10 3 6 8 10 11 10 2 0 4 -4 4 -10z m-21036 -31 c-3 -5 -10 -7 -15 -3
-5 3 -7 10 -3 15 3 5 10 7 15 3 5 -3 7 -10 3 -15z m21126 17 c0 -3 -4 -8 -10
-11 -5 -3 -10 -1 -10 4 0 6 5 11 10 11 6 0 10 -2 10 -4z m310 -11 c0 -8 -4
-15 -10 -15 -5 0 -10 7 -10 15 0 8 5 15 10 15 6 0 10 -7 10 -15z m2328 -4 c3
-8 -1 -12 -9 -9 -7 2 -15 10 -17 17 -3 8 1 12 9 9 7 -2 15 -10 17 -17z
m-23708 -1 c0 -5 -5 -10 -11 -10 -5 0 -7 5 -4 10 3 6 8 10 11 10 2 0 4 -4 4
-10z m6110 0 c0 -5 -4 -10 -10 -10 -5 0 -10 5 -10 10 0 6 5 10 10 10 6 0 10
-4 10 -10z m17540 -26 c0 -8 -4 -12 -10 -9 -5 3 -10 13 -10 21 0 8 5 12 10 9
6 -3 10 -13 10 -21z m100 6 c0 -5 -4 -10 -10 -10 -5 0 -10 5 -10 10 0 6 5 10
10 10 6 0 10 -4 10 -10z m-23720 -10 c0 -5 -4 -10 -10 -10 -5 0 -10 5 -10 10
0 6 5 10 10 10 6 0 10 -4 10 -10z m21470 -24 c0 -2 -8 -10 -17 -17 -16 -13
-17 -12 -4 4 13 16 21 21 21 13z m-130 -21 c0 -8 -4 -15 -10 -15 -5 0 -10 7
-10 15 0 8 5 15 10 15 6 0 10 -7 10 -15z m2300 -5 c0 -5 -2 -10 -4 -10 -3 0
-8 5 -11 10 -3 6 -1 10 4 10 6 0 11 -4 11 -10z m-403 -16 c4 -10 16 -14 36
-12 18 2 32 -2 34 -9 3 -8 -5 -14 -19 -14 -12 -1 -37 -3 -55 -5 -26 -2 -32 2
-36 22 -2 13 -2 26 1 29 11 10 33 5 39 -11z m-3577 -34 c-18 -11 -22 -7 -14
14 5 13 10 14 18 6 8 -8 7 -13 -4 -20z m3510 5 c-7 -8 -16 -13 -20 -10 -4 3
-13 -2 -20 -10 -14 -16 -30 -11 -30 10 0 13 21 21 64 24 15 1 16 -2 6 -14z
m240 6 c0 -12 -20 -25 -27 -18 -7 7 6 27 18 27 5 0 9 -4 9 -9z m120 -6 c-17
-20 -1 -19 22 2 16 15 18 15 18 0 0 -9 -9 -21 -20 -27 -15 -8 -24 -6 -39 9
-21 21 -18 31 12 31 16 0 17 -3 7 -15z m96 -12 c-10 -10 -19 5 -10 18 6 11 8
11 12 0 2 -7 1 -15 -2 -18z m-9416 2 c0 -8 -4 -15 -10 -15 -5 0 -10 7 -10 15
0 8 5 15 10 15 6 0 10 -7 10 -15z m9270 6 c0 -12 -20 -25 -27 -18 -7 7 6 27
18 27 5 0 9 -4 9 -9z m-9205 -11 c3 -5 -1 -10 -9 -10 -9 0 -16 5 -16 10 0 6 4
10 9 10 6 0 13 -4 16 -10z m9047 -23 c-7 -8 -9 -17 -5 -20 3 -4 -1 -7 -10 -7
-9 0 -17 5 -17 11 0 5 -4 8 -9 5 -5 -3 -7 -15 -4 -26 3 -12 0 -20 -6 -20 -7 0
-11 -6 -9 -12 1 -7 -2 -23 -6 -36 -7 -20 -9 -20 -22 -7 -15 15 -44 21 -44 9 0
-4 8 -13 17 -20 10 -7 15 -16 10 -20 -4 -4 -13 -2 -19 4 -18 18 -46 14 -65 -8
-23 -26 -43 -26 -43 1 0 17 3 19 13 10 8 -6 17 -8 20 -4 13 12 7 34 -10 40
-10 4 -23 14 -30 22 -6 9 -15 13 -19 9 -4 -4 -1 -14 5 -22 10 -12 7 -17 -16
-29 -15 -9 -27 -18 -25 -21 5 -14 1 -46 -6 -46 -13 0 2 94 20 119 16 23 18 23
42 7 33 -21 39 -20 33 3 -5 21 10 54 23 46 4 -3 23 1 41 9 18 8 49 11 70 9 20
-3 45 -1 55 5 23 13 31 7 16 -11z m-3682 3 c0 -5 -7 -10 -16 -10 -8 0 -12 5
-9 10 3 6 10 10 16 10 5 0 9 -4 9 -10z m3787 4 c-3 -3 -12 -4 -19 -1 -8 3 -5
6 6 6 11 1 17 -2 13 -5z m193 -4 c0 -5 -7 -7 -15 -4 -8 4 -15 8 -15 10 0 2 7
4 15 4 8 0 15 -4 15 -10z m-3765 -20 c-3 -5 -10 -10 -16 -10 -5 0 -9 5 -9 10
0 6 7 10 16 10 8 0 12 -4 9 -10z m3615 1 c0 -5 -9 -11 -21 -14 -16 -4 -18 -3
-8 9 13 16 29 19 29 5z m100 -1 c0 -5 -2 -10 -4 -10 -3 0 -8 5 -11 10 -3 6 -1
10 4 10 6 0 11 -4 11 -10z m-55 -20 c4 -6 10 -8 15 -5 11 7 40 -5 40 -17 0 -5
-4 -7 -9 -3 -5 3 -12 1 -16 -5 -7 -11 -55 16 -55 31 0 12 17 11 25 -1z m125
-10 c0 -5 -2 -10 -4 -10 -3 0 -8 5 -11 10 -3 6 -1 10 4 10 6 0 11 -4 11 -10z
m-140 -46 c7 -19 17 -24 43 -24 26 0 33 -4 33 -20 0 -17 -7 -19 -53 -18 -29 1
-53 6 -53 11 0 5 7 6 16 3 12 -5 15 -2 10 10 -3 8 -6 22 -6 31 0 9 -6 13 -15
9 -15 -5 -21 14 -9 27 10 10 24 -2 34 -29z m-190 16 c0 -5 -7 -10 -16 -10 -8
0 -12 5 -9 10 3 6 10 10 16 10 5 0 9 -4 9 -10z m-15820 -14 c0 -7 -9 -16 -20
-19 -23 -6 -26 3 -8 21 16 16 28 15 28 -2z m15900 -1 c0 -18 12 -19 28 -3 9 9
12 8 12 -5 0 -10 -7 -20 -16 -24 -8 -3 -13 -12 -10 -19 8 -20 -32 -28 -50 -9
-9 9 -13 19 -9 23 4 4 10 1 12 -5 3 -7 12 -13 20 -13 15 0 15 12 -2 53 -4 10
-3 17 4 17 6 0 11 -7 11 -15z m-50 -10 c0 -8 -7 -15 -15 -15 -26 0 -18 20 13
29 1 1 2 -6 2 -14z m-3783 -1 c-3 -3 -12 -4 -19 -1 -8 3 -5 6 6 6 11 1 17 -2
13 -5z m63 -4 c0 -5 -5 -10 -11 -10 -5 0 -7 5 -4 10 3 6 8 10 11 10 2 0 4 -4
4 -10z m3685 -20 c3 -6 -1 -7 -9 -4 -18 7 -21 14 -7 14 6 0 13 -4 16 -10z
m-235 -30 c0 -5 -2 -10 -4 -10 -3 0 -8 5 -11 10 -3 6 -1 10 4 10 6 0 11 -4 11
-10z m-15524 -52 c-14 -19 -16 -20 -22 -4 -4 10 1 25 12 37 16 18 19 19 22 5
2 -8 -4 -25 -12 -38z m15618 -7 c-16 -14 -16 -14 -6 0 6 9 9 19 6 22 -4 3 -3
14 2 24 7 16 8 15 12 -6 2 -14 -3 -30 -14 -40z m-139 10 c3 -5 1 -12 -5 -16
-5 -3 -10 1 -10 9 0 18 6 21 15 7z m-2765 -21 c-6 -11 -12 -20 -14 -20 -2 0
-2 9 1 20 3 11 9 20 15 20 5 0 4 -9 -2 -20z m2800 -5 c0 -8 -6 -12 -14 -9 -8
3 -12 12 -9 20 6 17 23 9 23 -11z m-2715 -25 c-3 -5 -11 -10 -16 -10 -6 0 -7
5 -4 10 3 6 11 10 16 10 6 0 7 -4 4 -10z m-7070 -41 c0 -7 -8 -15 -17 -17 -18
-3 -25 18 -11 32 10 10 28 1 28 -15z m12133 -76 c-7 -15 -22 -29 -33 -31 -19
-3 -19 -2 -2 11 9 8 17 18 17 24 0 11 22 34 28 29 2 -3 -2 -17 -10 -33z
m-12078 2 c0 -8 -4 -15 -10 -15 -5 0 -10 7 -10 15 0 8 5 15 10 15 6 0 10 -7
10 -15z m-5865 -65 c-3 -5 -11 -10 -16 -10 -6 0 -7 5 -4 10 3 6 11 10 16 10 6
0 7 -4 4 -10z m5930 -20 c3 -5 -1 -10 -10 -10 -9 0 -13 5 -10 10 3 6 8 10 10
10 2 0 7 -4 10 -10z m-1355 -25 c-7 -8 -16 -12 -21 -9 -13 8 -1 24 18 24 13 0
13 -3 3 -15z m1660 -126 c0 -5 -4 -9 -10 -9 -5 0 -10 7 -10 16 0 8 5 12 10 9
6 -3 10 -10 10 -16z m51 -42 c-13 -13 -26 -3 -16 12 3 6 11 8 17 5 6 -4 6 -10
-1 -17z m-12856 -6594 c28 -12 69 -24 93 -28 42 -7 43 -8 40 -43 -3 -34 -6
-37 -37 -40 -26 -3 -32 0 -28 11 4 10 -11 19 -52 31 -32 9 -82 32 -112 50
l-55 33 -50 -28 c-27 -16 -77 -38 -111 -50 -38 -12 -63 -26 -63 -35 0 -8 -10
-14 -24 -14 -28 0 -31 3 -40 46 -7 31 -7 32 40 39 62 9 133 37 197 78 l52 34
50 -32 c28 -17 73 -41 100 -52z m-855 -168 c0 -23 -4 -25 -45 -25 -25 0 -45
-3 -45 -7 1 -21 21 -36 49 -36 26 0 31 -4 31 -24 0 -20 -5 -23 -35 -23 -34 0
-35 -1 -35 -40 0 -38 -2 -40 -30 -40 l-30 0 0 103 c0 57 3 107 7 110 3 4 35 7
70 7 61 0 63 -1 63 -25z m99 -85 l2 -110 -25 0 -26 0 0 110 c0 109 0 110 23
110 23 0 24 -2 26 -110z m196 85 c30 -30 31 -54 4 -89 -20 -26 -20 -26 -1 -53
35 -52 35 -53 2 -53 -25 0 -33 6 -47 35 -9 19 -23 35 -30 35 -8 0 -13 -13 -13
-35 0 -33 -2 -35 -31 -35 -28 0 -31 3 -25 23 3 12 6 61 6 110 l0 87 55 0 c46
0 60 -4 80 -25z m215 0 c0 -23 -4 -25 -45 -25 -38 0 -45 -3 -45 -20 0 -17 7
-20 40 -20 33 0 40 -3 40 -20 0 -17 -7 -20 -41 -20 -36 0 -40 -2 -37 -22 2
-19 10 -24 46 -26 34 -3 42 -7 42 -23 0 -17 -7 -19 -70 -19 l-70 0 0 110 0
110 70 0 c68 0 70 -1 70 -25z m110 -32 c8 -29 18 -53 21 -53 4 0 17 25 30 55
13 30 26 55 29 55 3 0 19 -26 35 -57 l28 -58 17 55 c14 47 20 55 43 58 34 4
34 -6 2 -94 -40 -109 -47 -124 -54 -124 -4 0 -20 27 -36 60 -17 33 -33 60 -36
60 -3 0 -18 -27 -33 -60 -28 -60 -46 -76 -46 -42 0 10 -4 22 -9 28 -10 10 -45
104 -55 147 -6 26 -5 28 21 25 24 -3 30 -10 43 -55z m370 -44 c25 -55 47 -104
48 -110 2 -5 -8 -9 -23 -9 -18 0 -29 6 -32 20 -8 29 -75 28 -95 -1 -8 -13 -21
-20 -35 -17 -21 3 -19 8 30 110 29 60 54 108 57 108 3 0 25 -46 50 -101z m210
76 c0 -22 -4 -25 -35 -25 l-35 0 0 -85 c0 -84 0 -85 -25 -85 -25 0 -25 1 -25
85 l0 85 -29 0 c-33 0 -46 13 -37 35 4 12 26 15 96 15 89 0 90 0 90 -25z m196
13 c3 -4 1 -15 -5 -26 -9 -17 -16 -19 -39 -13 -55 16 -102 -28 -88 -82 8 -33
58 -54 91 -39 21 10 26 8 35 -9 15 -26 7 -35 -36 -43 -80 -16 -144 34 -144
111 0 38 5 50 35 80 34 34 38 35 90 31 30 -3 58 -7 61 -10z m94 -33 l0 -46 43
3 c42 3 42 3 45 46 3 37 6 42 28 42 24 0 24 0 24 -110 l0 -110 -25 0 c-19 0
-25 5 -25 23 0 54 -10 67 -51 67 l-39 0 0 -45 c0 -41 -2 -45 -25 -45 l-25 0 0
110 0 110 25 0 c23 0 25 -4 25 -45z m-843 -256 l53 -50 28 19 c15 11 40 34 56
51 28 30 86 44 86 22 0 -13 -150 -151 -165 -151 -29 0 -165 123 -165 150 0 6
12 10 27 10 18 0 43 -16 80 -51z"/>
<path d="M23320 7811 c0 -6 5 -13 10 -16 16 -10 12 -25 -7 -25 -13 0 -14 -3
-5 -12 8 -8 15 -8 25 0 8 7 17 9 20 5 4 -3 7 1 7 9 0 9 7 19 16 22 8 3 12 10
9 16 -8 13 -75 13 -75 1z"/>
<path d="M419 415 c-8 -8 2 -65 11 -65 24 0 40 15 40 36 0 13 -4 24 -9 24 -5
0 -16 2 -23 5 -8 3 -16 3 -19 0z"/>
<path d="M1137 349 c-7 -27 -4 -32 17 -27 12 2 13 7 2 27 l-13 23 -6 -23z"/>
<path d="M15254 8781 c4 -5 26 -22 51 -38 25 -15 45 -33 45 -40 0 -29 87 -8
145 34 18 14 16 15 -25 8 -87 -14 -94 -14 -119 4 -22 15 -84 41 -98 41 -2 0
-2 -4 1 -9z"/>
<path d="M15757 8735 c-41 -62 -38 -70 9 -24 l31 30 13 -30 c15 -37 47 -68 37
-36 -19 63 -40 115 -46 115 -4 0 -23 -25 -44 -55z"/>
<path d="M4047 8587 c-5 -14 0 -61 10 -87 4 -8 9 5 13 30 7 46 4 70 -10 70 -4
0 -10 -6 -13 -13z"/>
<path d="M15766 8510 l-69 -30 -32 20 c-32 20 -75 27 -75 13 0 -5 23 -21 50
-36 l50 -28 75 35 c41 20 75 40 75 46 0 13 7 14 -74 -20z"/>
<path d="M4475 8300 c3 -5 10 -10 16 -10 5 0 9 5 9 10 0 6 -7 10 -16 10 -8 0
-12 -4 -9 -10z"/>
<path d="M23493 8098 c1 -7 -11 -12 -32 -12 -29 -1 -36 -5 -42 -28 -9 -33 -5
-34 23 -8 26 24 58 26 58 4 0 -9 -6 -14 -13 -11 -14 5 -39 -17 -30 -27 16 -16
40 -2 57 35 17 35 18 42 5 50 -19 12 -29 11 -26 -3z"/>
<path d="M23543 8064 c-11 -10 -8 -18 11 -39 28 -30 52 -32 66 -5 8 15 8 20
-1 20 -6 0 -23 8 -37 19 -23 16 -29 16 -39 5z m57 -28 c0 -3 -4 -8 -10 -11 -5
-3 -10 -1 -10 4 0 6 5 11 10 11 6 0 10 -2 10 -4z"/>
<path d="M23345 8050 c-3 -5 -1 -10 4 -10 6 0 11 5 11 10 0 6 -2 10 -4 10 -3
0 -8 -4 -11 -10z"/>
<path d="M23383 8043 c-20 -7 -15 -24 15 -49 30 -27 32 -27 51 -15 17 11 6 31
-18 31 -10 0 -22 8 -27 19 -5 10 -15 16 -21 14z"/>
<path d="M23307 8034 c-10 -10 16 -42 29 -37 10 4 10 9 1 24 -12 20 -20 23
-30 13z"/>
<path d="M23235 8000 c4 -6 11 -8 16 -5 14 9 11 15 -7 15 -8 0 -12 -5 -9 -10z"/>
<path d="M23360 7980 c0 -5 5 -10 11 -10 5 0 7 5 4 10 -3 6 -8 10 -11 10 -2 0
-4 -4 -4 -10z"/>
<path d="M23330 7960 c0 -5 5 -10 10 -10 6 0 10 5 10 10 0 6 -4 10 -10 10 -5
0 -10 -4 -10 -10z"/>
</g>
</svg>
